<svg id="_x33_0" enable-background="new 0 0 64 64" height="512" viewBox="0 0 64 64" width="512" xmlns="http://www.w3.org/2000/svg"><g><path d="m12.375 51-2.375-7.187-2.375 7.187h-7.36l5.91 4.989-2.38 7.705 6.205-4.741 6.205 4.741-2.38-7.705 5.91-4.989zm.072 7.306-2.447-1.869-2.447 1.87.924-2.991-2.742-2.316h3.335l.93-2.813.93 2.813h3.335l-2.742 2.315z"/><path d="m63.735 51h-7.36l-2.375-7.187-2.375 7.187h-7.36l5.91 4.989-2.38 7.705 6.205-4.741 6.205 4.741-2.38-7.705zm-9.735 5.437-2.447 1.87.924-2.991-2.742-2.316h3.335l.93-2.813.93 2.813h3.335l-2.742 2.315.924 2.991z"/><path d="m39.934 29.343c2.961.857 5.066 3.572 5.066 6.699v12.958h2v-12.958c0-4.275-3.043-7.987-7.235-8.825l-1.657-.332c-.774-.155-1.386-.753-1.559-1.524l-.391-1.744c.917-.681 1.66-1.578 2.156-2.618h.686c2.206 0 4-1.794 4-4 0-.901-.31-1.724-.815-2.393l.322-.966c.327-.98.493-2.002.493-3.036 0-5.296-4.308-9.604-9.604-9.604h-2.792c-5.296 0-9.604 4.308-9.604 9.604 0 1.034.166 2.056.493 3.037l.322.966c-.505.669-.815 1.492-.815 2.393 0 2.206 1.794 4 4 4h.685c.496 1.04 1.24 1.937 2.156 2.618l-.391 1.744c-.173.771-.785 1.369-1.56 1.524l-1.656.332c-4.191.837-7.234 4.549-7.234 8.824v12.958h2v-12.958c0-3.127 2.104-5.842 5.065-6.699.416 4.979 2.943 9.599 6.935 12.636v4.86l-1.375 4.161h-7.36l5.91 4.989-2.38 7.705 6.205-4.741 6.205 4.741-2.38-7.705 5.91-4.989h-7.36l-1.375-4.161v-4.85c3.995-3.037 6.518-7.665 6.934-12.646zm-7.934 10.857c-.625-.494-1.209-1.028-1.747-1.605l.528-2.111h2.438l.528 2.111c-.538.577-1.122 1.111-1.747 1.605zm.004-8.723-.004.007-.004-.006.004-.005zm-.004 1.173 1.575.945-.296.889h-2.559l-.296-.889zm3.041 2.874.291-.874.867.52c-.265.506-.561.995-.88 1.47zm-6.373-.875.291.874-.279 1.117c-.318-.475-.615-.964-.88-1.47zm9.272-5.758c-.099 1.527-.404 3.02-.928 4.433l-3.272-1.963 3.365-2.692c.197.074.401.135.611.177zm1.06-9.891h-.08c.047-.328.08-.66.08-1v-3c1.103 0 2 .897 2 2s-.897 2-2 2zm-8.396-16h2.792c4.193 0 7.604 3.411 7.604 7.604 0 .819-.131 1.628-.39 2.404l-.098.293c-.467-.191-.977-.301-1.512-.301h-.184c-.414-1.161-1.514-2-2.816-2h-2c-1.654 0-3-1.346-3-3v-3h-2v3c0 .239.017.474.049.703l-1.535.614c-1.518.607-2.499 2.051-2.512 3.683h-.002c-.535 0-1.045.11-1.512.301l-.098-.293c-.259-.776-.39-1.585-.39-2.404 0-4.193 3.411-7.604 7.604-7.604zm-5.604 16c-1.103 0-2-.897-2-2s.897-2 2-2v3c0 .34.033.672.08 1zm2-1v-4.969c0-.823.494-1.552 1.257-1.857l1.466-.586c.878 1.445 2.466 2.412 4.277 2.412h2c.551 0 1 .449 1 1v4c0 2.757-2.243 5-5 5s-5-2.243-5-5zm5 7c.817 0 1.598-.148 2.328-.406l.27 1.206c.14.623.428 1.185.819 1.66l-3.417 2.732-3.417-2.733c.39-.475.679-1.036.818-1.66l.27-1.206c.731.259 1.512.407 2.329.407zm-5.105 3.669 3.365 2.692-3.272 1.963c-.524-1.413-.828-2.906-.928-4.433l.223-.045c.211-.041.415-.103.612-.177zm9.37 24.331-2.742 2.315.924 2.991-2.447-1.869-2.447 1.87.924-2.991-2.742-2.316h3.335l.93-2.813.93 2.813z"/><path d="m53 33c5.514 0 10-4.486 10-10 0-2.392-.846-4.588-2.252-6.311l1.963-1.986-1.423-1.406-1.952 1.974c-1.725-1.418-3.933-2.271-6.336-2.271-5.514 0-10 4.486-10 10s4.486 10 10 10zm0-18c1.856 0 3.561.641 4.92 1.705l-6.797 6.877-1.289-1.289-1.414 1.414 2.711 2.711 8.198-8.293c1.043 1.352 1.671 3.039 1.671 4.875 0 4.411-3.589 8-8 8s-8-3.589-8-8 3.589-8 8-8z"/></g></svg>