<svg id="Capa_1" enable-background="new 0 0 512 512" height="512" viewBox="0 0 512 512" width="512" xmlns="http://www.w3.org/2000/svg"><g><path d="m456.995 30h-326.99v210h326.99l-69.99-105z" fill="#65d6a9"/><path d="m235.005 186.211-40.606-40.606 21.211-21.21 19.395 19.394 49.394-49.394 21.211 21.21z" fill="#edf5ff"/><path d="m130.005 0h-15v316h15 15v-316z" fill="#47568c"/><path d="m130.005 0h15v316h-15z" fill="#3a4673"/><g><path d="m190.005 361c-8.276 0-15-6.724-15-15v-30h-45-45v30c0 8.276-6.724 15-15 15h-15v151h75 75v-151z" fill="#edf5ff"/><path d="m205.005 361h-15c-8.276 0-15-6.724-15-15v-30h-45v196h75z" fill="#d5e8fe"/><path d="m130.005 300h-75v31h75 75v-31z" fill="#d5e8fe"/><path d="m130.005 300h75v31h-75z" fill="#b5dbff"/><path d="m130.005 421h-45v61h45 45v-61z" fill="#ff6e83"/><path d="m130.005 421h45v61h-45z" fill="#ff3b7f"/></g></g></svg>